<svg width="18" height="18" viewBox="0 0 18 18" fill="none" xmlns="http://www.w3.org/2000/svg">
<path d="M7.66629 6.85713V11.6735C7.67186 12.0257 7.81567 12.3616 8.0667 12.6087C8.31773 12.8558 8.65585 12.9943 9.00809 12.9943C9.36033 12.9943 9.69845 12.8558 9.94948 12.6087C10.2005 12.3616 10.3443 12.0257 10.3499 11.6735L10.3542 5.36048C10.3579 5.05945 10.3018 4.76069 10.1891 4.48152C10.0764 4.20235 9.90945 3.94832 9.69787 3.73416C9.48629 3.52 9.2343 3.34996 8.95652 3.23391C8.67874 3.11786 8.38068 3.05811 8.07963 3.05811C7.77858 3.05811 7.48053 3.11786 7.20274 3.23391C6.92496 3.34996 6.67297 3.52 6.46139 3.73416C6.24981 3.94832 6.08285 4.20235 5.97018 4.48152C5.85751 4.76069 5.80137 5.05945 5.80502 5.36048V11.7161C5.79889 12.1399 5.87706 12.5607 6.035 12.954C6.19294 13.3473 6.42749 13.7053 6.72502 14.0072C7.02255 14.309 7.37712 14.5487 7.76811 14.7123C8.1591 14.876 8.57872 14.9602 9.00257 14.9602C9.42641 14.9602 9.84603 14.876 10.237 14.7123C10.628 14.5487 10.9826 14.309 11.2801 14.0072C11.5776 13.7053 11.8122 13.3473 11.9701 12.954C12.1281 12.5607 12.2062 12.1399 12.2001 11.7161V5.777" stroke="#888888" stroke-width="1.5" stroke-miterlimit="10" stroke-linecap="round"/>
</svg>
