<svg width="40" height="40" viewBox="0 0 40 40" fill="none" xmlns="http://www.w3.org/2000/svg">
<path d="M19.1005 34.8102L19.1 34.8096C18.8947 34.5615 16.3173 31.4172 13.7941 27.4102C12.5324 25.4066 11.2904 23.197 10.3653 21.0329C9.43681 18.861 8.84473 16.7741 8.84473 15.005C8.84473 8.85445 13.8492 3.84998 19.9997 3.84998C26.1503 3.84998 31.1547 8.85283 31.1547 15.005C31.1547 16.7741 30.5626 18.8609 29.6342 21.0326C28.7091 23.1966 27.4671 25.4061 26.2054 27.4096C23.6822 31.4163 21.1049 34.5605 20.899 34.8102L20.899 34.8102L19.9997 35.9007L19.1005 34.8102Z" fill="#FF9E67" stroke="white"/>
<path d="M14 9.33331V14C14 15.4726 15.194 16.6666 16.6667 16.6666V22.6666H18V16.6666C19.4727 16.6666 20.6667 15.4726 20.6667 14V9.33331H19.3333V14H18V9.33331H16.6667V14H15.3333V9.33331H14ZM26 9.33331C23.6887 9.42931 22.6667 11.138 22.6667 12V17.3333H24.6667V22.6666H26V17.3333V16.6666V9.33331Z" fill="white"/>
</svg>
