<svg width="32" height="32" viewBox="0 0 32 32" fill="none" xmlns="http://www.w3.org/2000/svg">
<path d="M19.75 13H17.25C17.1119 13 17 13.1119 17 13.25V15.75C17 15.8881 17.1119 16 17.25 16H19.75C19.8881 16 20 15.8881 20 15.75V13.25C20 13.1119 19.8881 13 19.75 13Z" fill="#222222"/>
<path d="M24.75 13H22.25C22.1119 13 22 13.1119 22 13.25V15.75C22 15.8881 22.1119 16 22.25 16H24.75C24.8881 16 25 15.8881 25 15.75V13.25C25 13.1119 24.8881 13 24.75 13Z" fill="#222222"/>
<path d="M19.75 18H17.25C17.1119 18 17 18.1119 17 18.25V20.75C17 20.8881 17.1119 21 17.25 21H19.75C19.8881 21 20 20.8881 20 20.75V18.25C20 18.1119 19.8881 18 19.75 18Z" fill="#222222"/>
<path d="M24.75 18H22.25C22.1119 18 22 18.1119 22 18.25V20.75C22 20.8881 22.1119 21 22.25 21H24.75C24.8881 21 25 20.8881 25 20.75V18.25C25 18.1119 24.8881 18 24.75 18Z" fill="#222222"/>
<path d="M9.75 18H7.25C7.11193 18 7 18.1119 7 18.25V20.75C7 20.8881 7.11193 21 7.25 21H9.75C9.88807 21 10 20.8881 10 20.75V18.25C10 18.1119 9.88807 18 9.75 18Z" fill="#222222"/>
<path d="M14.75 18H12.25C12.1119 18 12 18.1119 12 18.25V20.75C12 20.8881 12.1119 21 12.25 21H14.75C14.8881 21 15 20.8881 15 20.75V18.25C15 18.1119 14.8881 18 14.75 18Z" fill="#222222"/>
<path d="M9.75 23H7.25C7.11193 23 7 23.1119 7 23.25V25.75C7 25.8881 7.11193 26 7.25 26H9.75C9.88807 26 10 25.8881 10 25.75V23.25C10 23.1119 9.88807 23 9.75 23Z" fill="#222222"/>
<path d="M14.75 23H12.25C12.1119 23 12 23.1119 12 23.25V25.75C12 25.8881 12.1119 26 12.25 26H14.75C14.8881 26 15 25.8881 15 25.75V23.25C15 23.1119 14.8881 23 14.75 23Z" fill="#222222"/>
<path d="M19.75 23H17.25C17.1119 23 17 23.1119 17 23.25V25.75C17 25.8881 17.1119 26 17.25 26H19.75C19.8881 26 20 25.8881 20 25.75V23.25C20 23.1119 19.8881 23 19.75 23Z" fill="#222222"/>
<path d="M28 4H25V2H22.5V4H9.5V2H7V4H4C3.46957 4 2.96086 4.21071 2.58579 4.58579C2.21071 4.96086 2 5.46957 2 6V28C2 28.5304 2.21071 29.0391 2.58579 29.4142C2.96086 29.7893 3.46957 30 4 30H28C28.5304 30 29.0391 29.7893 29.4142 29.4142C29.7893 29.0391 30 28.5304 30 28V6C30 5.46957 29.7893 4.96086 29.4142 4.58579C29.0391 4.21071 28.5304 4 28 4ZM27.25 27.25H4.75V11H27.25V27.25Z" fill="#222222"/>
</svg>
