<svg fill="none" height="64" width="143" xmlns="http://www.w3.org/2000/svg" xmlns:xlink="http://www.w3.org/1999/xlink"><linearGradient id="a"><stop offset="0" stop-color="#11bdfd"/><stop offset="1" stop-color="#9c3ee5"/></linearGradient><linearGradient id="b" gradientUnits="userSpaceOnUse" x1="1.711" x2="139.337" xlink:href="#a" y1="34.415" y2="34.654"/><linearGradient id="c" gradientUnits="userSpaceOnUse" x1="39.621" x2="129.692" xlink:href="#a" y1="32.081" y2="32.372"/><path clip-rule="evenodd" d="M60.322 46.908C54.964 57.067 44.294 64 32 64 14.327 64 0 49.673 0 32S14.327 0 32 0c12.072 0 22.578 6.685 28.026 16.544h9.18a4.934 4.934 0 014.823-3.892h8.76a4.934 4.934 0 014.822 3.893h4.721v-.82a4.959 4.959 0 014.959-4.959h10.831c1.422 0 2.667.755 3.357 1.886h5.372a4.934 4.934 0 014.822 3.892h15.403c3.611 0 6.011 3.737 4.509 7.022l-11.577 25.312a4.959 4.959 0 01-4.51 2.896h-5.763a4.958 4.958 0 01-4.957-4.866zm-1.863-2.986C53.911 54 43.775 61.014 32 61.014 15.976 61.014 2.986 48.024 2.986 32S15.976 2.986 32 2.986c11.56 0 21.542 6.761 26.205 16.545h11.932c1.075 0 1.946-.872 1.946-1.947s.871-1.946 1.946-1.946h8.76c1.074 0 1.946.871 1.946 1.946s.871 1.947 1.946 1.947h6.665c1.09 0 1.972-.883 1.972-1.973v-1.833c0-1.09.883-1.973 1.973-1.973h10.831c.521 0 .943.422.943.943s.422.943.943.943h6.843c1.075 0 1.946.871 1.946 1.946s.871 1.947 1.946 1.947h16.333a1.972 1.972 0 011.793 2.793l-11.577 25.312a1.973 1.973 0 01-1.794 1.152h-5.763a1.972 1.972 0 01-1.972-1.973v-.92c0-1.09-.883-1.973-1.972-1.973zm-40.312-7a4.921 4.921 0 100-9.843 4.921 4.921 0 000 9.842zM26.055 32a7.907 7.907 0 11-15.815 0 7.907 7.907 0 0115.815 0z" fill="url(#b)" fill-rule="evenodd"/><g fill="url(#c)"><path d="M45.295 25.481c.432-.033.772.058 1.02.274.25.216.374.539.374.97 0 .448-.108.78-.323.996s-.606.357-1.17.423l-.747.075c-.979.1-1.7.431-2.165.995-.448.564-.672 1.27-.672 2.116v5.226c0 .481-.15.855-.448 1.12-.299.249-.672.373-1.12.373s-.821-.124-1.12-.373c-.282-.265-.423-.639-.423-1.12v-9.631c0-.465.141-.822.423-1.07.299-.25.664-.374 1.095-.374s.78.125 1.045.373c.266.233.399.573.399 1.02v.996c.315-.73.78-1.294 1.393-1.692a4.387 4.387 0 012.09-.672zM57.66 34.565c.282 0 .506.108.672.324.183.215.274.506.274.87 0 .515-.307.946-.92 1.295a8.722 8.722 0 01-1.917.771 8.237 8.237 0 01-2.041.274c-1.958 0-3.51-.564-4.654-1.692-1.145-1.128-1.717-2.671-1.717-4.63 0-1.244.248-2.347.746-3.31.498-.962 1.195-1.708 2.09-2.24.913-.53 1.942-.796 3.087-.796 1.095 0 2.049.24 2.862.722s1.443 1.161 1.891 2.04.672 1.917.672 3.112c0 .713-.315 1.07-.945 1.07h-7.342c.1 1.145.423 1.991.97 2.539.548.53 1.344.796 2.39.796.53 0 .995-.066 1.393-.2.415-.132.88-.314 1.394-.547.498-.265.863-.398 1.095-.398zm-4.305-6.944c-.847 0-1.527.266-2.041.797-.498.53-.797 1.294-.896 2.29h5.625c-.034-1.013-.283-1.776-.747-2.29-.465-.531-1.112-.797-1.941-.797zM68.075 25.431c1.46 0 2.547.415 3.26 1.245s1.07 2.082 1.07 3.758v6.122c0 .465-.14.83-.422 1.095-.266.266-.64.398-1.12.398-.482 0-.863-.132-1.145-.398-.282-.265-.423-.63-.423-1.095v-5.948c0-.946-.183-1.634-.548-2.066-.348-.431-.904-.647-1.667-.647-.896 0-1.618.282-2.166.846-.53.564-.796 1.32-.796 2.265v5.55c0 .465-.141.83-.423 1.095-.282.266-.664.398-1.145.398s-.863-.132-1.145-.398c-.265-.265-.398-.63-.398-1.095v-9.631c0-.432.141-.78.423-1.046.282-.265.664-.398 1.145-.398.431 0 .78.133 1.045.398.282.25.423.58.423.996v.672c.415-.68.97-1.203 1.668-1.568.697-.365 1.485-.548 2.364-.548zM81.887 35.735c.83.05 1.244.423 1.244 1.12 0 .398-.166.705-.498.92-.315.2-.771.283-1.368.25l-.672-.05c-2.788-.2-4.181-1.693-4.181-4.48v-5.426h-1.245c-.448 0-.796-.1-1.045-.298-.232-.2-.349-.49-.349-.871s.117-.672.349-.871c.249-.2.597-.3 1.045-.3h1.245V23.44c0-.448.14-.804.423-1.07.282-.265.663-.398 1.145-.398.464 0 .837.133 1.12.398.282.266.423.622.423 1.07v2.29h2.115c.448 0 .788.1 1.02.299.25.199.374.489.374.87s-.125.673-.374.872c-.232.199-.572.298-1.02.298h-2.115v5.65c0 1.228.564 1.883 1.692 1.966zM90.029 25.431c1.692 0 2.945.423 3.758 1.27.83.83 1.244 2.098 1.244 3.807v6.073c0 .448-.133.805-.398 1.07-.266.25-.63.373-1.095.373-.432 0-.788-.132-1.07-.398-.266-.265-.399-.614-.399-1.045v-.547a3.23 3.23 0 01-1.344 1.518c-.597.365-1.294.547-2.09.547-.813 0-1.551-.166-2.215-.498-.664-.331-1.186-.788-1.568-1.368s-.572-1.228-.572-1.942c0-.896.224-1.6.672-2.115.464-.514 1.21-.888 2.24-1.12s2.447-.348 4.255-.348h.622v-.573c0-.813-.174-1.402-.522-1.767-.349-.382-.913-.572-1.693-.572-.48 0-.97.074-1.468.224a17.09 17.09 0 00-1.767.597c-.431.216-.747.323-.946.323a.974.974 0 01-.746-.323c-.183-.216-.274-.498-.274-.846 0-.282.066-.523.199-.722.15-.216.39-.415.722-.597.58-.316 1.269-.564 2.065-.747.814-.182 1.61-.274 2.39-.274zm-.772 10.428c.83 0 1.502-.274 2.016-.821.531-.564.797-1.286.797-2.165v-.523h-.448c-1.112 0-1.975.05-2.589.15-.614.099-1.053.273-1.319.522-.265.249-.398.589-.398 1.02 0 .531.182.971.547 1.32.382.331.847.497 1.394.497zM99.432 38.05c-.448 0-.822-.125-1.12-.374-.282-.265-.423-.639-.423-1.12V21.698c0-.481.14-.846.423-1.095.298-.249.672-.373 1.12-.373s.821.124 1.12.373c.298.249.448.614.448 1.095v14.858c0 .481-.15.855-.448 1.12-.299.249-.672.373-1.12.373zM105.751 38.05c-.448 0-.821-.125-1.12-.374-.282-.265-.423-.639-.423-1.12V26.95c0-.48.141-.846.423-1.095.299-.248.672-.373 1.12-.373s.821.124 1.12.373c.299.25.448.614.448 1.095v9.607c0 .481-.149.855-.448 1.12-.299.249-.672.373-1.12.373zm0-14.784c-.564 0-1.012-.15-1.344-.448-.332-.315-.498-.722-.498-1.22 0-.497.166-.895.498-1.194.332-.299.78-.448 1.344-.448.547 0 .987.15 1.319.448.348.299.523.697.523 1.194 0 .498-.166.905-.498 1.22-.332.299-.78.448-1.344.448zM116.849 35.735c.829.05 1.244.423 1.244 1.12 0 .398-.166.705-.498.92-.315.2-.771.283-1.369.25l-.672-.05c-2.787-.2-4.181-1.693-4.181-4.48v-5.426h-1.244c-.448 0-.797-.1-1.045-.298-.233-.2-.349-.49-.349-.871s.116-.672.349-.871c.248-.2.597-.3 1.045-.3h1.244V23.44c0-.448.141-.804.423-1.07.282-.265.664-.398 1.145-.398.465 0 .838.133 1.12.398.282.266.423.622.423 1.07v2.29h2.116c.448 0 .788.1 1.02.299.249.199.373.489.373.87s-.124.673-.373.872c-.232.199-.572.298-1.02.298h-2.116v5.65c0 1.228.564 1.883 1.693 1.966zM128.7 26.377c.132-.299.306-.514.522-.647.232-.15.481-.224.747-.224.381 0 .722.133 1.02.398.315.249.473.564.473.946 0 .182-.05.373-.149.572l-6.795 14.236c-.282.564-.721.846-1.319.846a1.55 1.55 0 01-1.02-.373 1.108 1.108 0 01-.423-.896c0-.182.05-.39.149-.622l1.693-3.56-4.63-9.63a1.263 1.263 0 01-.124-.573c0-.382.158-.705.473-.97a1.747 1.747 0 011.12-.399c.282 0 .539.075.771.224.233.133.415.348.548.647l3.484 7.69z"/></g></svg>