<svg fill="none" height="152" width="100" xmlns="http://www.w3.org/2000/svg"><g fill="#fff"><path d="M72 32H32c-4.42 0-8 3.58-8 8v72c0 4.42 3.58 8 8 8h40c4.42 0 8-3.58 8-8V40c0-4.42-3.58-8-8-8zm-12 80H44v-4h16zm12-12H32V44h40z" opacity=".8"/><path d="M33.453 7.605C32.741 7.502 32 8.03 32 8.86V14H16c-5.499 0-10 4.501-10 10v16a2 2 0 104 0V24c0-3.337 2.663-6 6-6h16v5.059c0 1.104 1.315 1.68 2.125.925l7.387-6.847c.65-.65.65-1.706 0-2.356l-7.387-6.847a1.245 1.245 0 00-.672-.329zM66.547 144.395c.712.103 1.453-.425 1.453-1.254V138h16c5.499 0 10-4.501 10-10v-16a2.001 2.001 0 10-4 0v16c0 3.337-2.663 6-6 6H68v-5.059c0-1.104-1.315-1.679-2.125-.925l-7.387 6.847c-.65.65-.65 1.706 0 2.356l7.387 6.847c.202.188.434.294.672.329z" opacity=".4"/></g></svg>