<svg fill="none" height="22" width="22" xmlns="http://www.w3.org/2000/svg"><path d="M2.833.5A2.35 2.35 0 00.5 2.833v16.334A2.35 2.35 0 002.833 21.5h16.334a2.35 2.35 0 002.333-2.333V2.833A2.35 2.35 0 0019.167.5zm7 2.333a1.167 1.167 0 110 2.335 1.167 1.167 0 010-2.335zm3.5 0a1.167 1.167 0 110 2.335 1.167 1.167 0 010-2.335zm3.5 0a1.167 1.167 0 110 2.335 1.167 1.167 0 010-2.335zm-14 4.667h16.334v11.667H2.833zm1.75 2.333a.584.584 0 00-.583.584v1.166c0 1.111.931 2.545 2.333 2.612v1.472H5.75c-.32 0-.583.262-.583.583s.262.583.583.583h2.333c.321 0 .584-.262.584-.583s-.263-.583-.584-.583H7.5v-1.472c1.402-.067 2.333-1.501 2.333-2.612v-1.166a.584.584 0 00-.583-.584zm7.905.012a.416.416 0 00-.321.403v6.17c0 .267.25.462.51.404a2.343 2.343 0 001.823-2.276V12.12a2.344 2.344 0 00-1.823-2.276.416.416 0 00-.189 0zm3.5 0a.416.416 0 00-.321.403v6.17c0 .267.25.462.51.404A2.343 2.343 0 0018 14.546V12.12a2.344 2.344 0 00-1.823-2.276.416.416 0 00-.189 0z" fill="#888"/></svg>