<svg width="32" height="32" viewBox="0 0 32 32" fill="none" xmlns="http://www.w3.org/2000/svg">
<path fill-rule="evenodd" clip-rule="evenodd" d="M17.0922 32H1.76615C0.790448 32 0 31.2091 0 30.2337V1.76614C0 0.79057 0.790572 0 1.76615 0H30.234C31.2093 0 32 0.79057 32 1.76614V30.2337C32 31.2092 31.2092 32 30.234 32H22.0795V19.6078H26.239L26.8618 14.7784H22.0795V11.6951C22.0795 10.2969 22.4678 9.344 24.4729 9.344L27.0302 9.34289V5.0234C26.5879 4.96454 25.0699 4.83305 23.3037 4.83305C19.6166 4.83305 17.0922 7.08368 17.0922 11.2168V14.7784H12.9221V19.6078H17.0922V32Z" fill="#4460A0"/>
</svg>
