<svg fill="none" height="24" width="24" xmlns="http://www.w3.org/2000/svg"><linearGradient id="a" gradientUnits="userSpaceOnUse" x1="2.62" x2="21.246" y1="12.664" y2="12.68"><stop offset="0" stop-color="#11bdfd"/><stop offset="1" stop-color="#9c3ee5"/></linearGradient><path d="M16 3.2c-1.035 0-1.916.674-2.25 1.6H3.2a.8.8 0 100 1.6h10.55C14.084 7.326 14.965 8 16 8s1.916-.674 2.25-1.6h2.55a.8.8 0 100-1.6h-2.55c-.334-.926-1.215-1.6-2.25-1.6zm0 1.6a.783.783 0 01.79.847.783.783 0 01-.79.753.783.783 0 01-.79-.847A.783.783 0 0116 4.8zM9.6 9.6c-1.034 0-1.916.674-2.25 1.6H3.2a.8.8 0 100 1.6h4.15c.334.926 1.216 1.6 2.25 1.6s1.916-.674 2.25-1.6h8.95a.8.8 0 100-1.6h-8.95c-.334-.926-1.215-1.6-2.25-1.6zm0 1.6a.783.783 0 01.79.847.783.783 0 01-.79.753.782.782 0 01-.79-.847.783.783 0 01.79-.753zm3.2 4.8c-1.035 0-1.916.674-2.25 1.6H3.2a.8.8 0 100 1.6h7.35c.334.926 1.215 1.6 2.25 1.6s1.916-.674 2.25-1.6h5.75a.8.8 0 100-1.6h-5.75c-.334-.926-1.215-1.6-2.25-1.6zm0 1.6a.783.783 0 01.79.847.783.783 0 01-.79.753.783.783 0 01-.79-.847.783.783 0 01.79-.753z" fill="url(#a)"/></svg>