<svg fill="none" height="16" width="16" xmlns="http://www.w3.org/2000/svg"><path d="M11.921 8.787h.004S10.668 10.63 9.612 12c-.914 1.183-1.18 2.197-1.257 2.687-.03.18-.177.313-.353.313s-.324-.133-.354-.313c-.076-.49-.343-1.504-1.256-2.687-.14-.183-.284-.373-.427-.567l3.45-4.1 2.777-3.293c.306.643.476 1.363.476 2.127 0 .966-.276 1.863-.746 2.62z" fill="#48b564"/><path d="M9.412 7.333l-3.45 4.1c-.94-1.26-1.886-2.646-1.886-2.646h.003c-.1-.16-.19-.324-.267-.494L6.586 5a1.832 1.832 0 102.827 2.333z" fill="#fcc60e"/><path d="M9.465 1.58L6.61 4.973 4.422 3.067c.853-1.06 2.14-1.734 3.577-1.734.513 0 1.006.087 1.466.247z" fill="#2c85eb"/><path d="M6.609 4.973L6.585 5 3.812 8.293a4.926 4.926 0 01-.48-2.126c0-1.18.41-2.264 1.09-3.1z" fill="#ed5748"/><path d="M9.413 7.333A1.832 1.832 0 106.586 5l2.88-3.42a4.71 4.71 0 012.723 2.46z" fill="#5695f6"/></svg>