<svg fill="none" height="32" width="40" xmlns="http://www.w3.org/2000/svg"><path d="M0 1a1 1 0 011-1h26.91a1 1 0 01.81.414l10.856 15a1 1 0 010 1.172l-10.856 15a1 1 0 01-.81.414H1a1 1 0 01-1-1z" fill="#e52e2a"/><path d="M20.728 16.408h2.952v6.696c-.864.688-1.872 1.216-3.024 1.584s-2.336.552-3.552.552c-1.712 0-3.256-.368-4.632-1.104-1.376-.752-2.456-1.784-3.24-3.096s-1.176-2.792-1.176-4.44.392-3.128 1.176-4.44 1.864-2.336 3.24-3.072c1.392-.752 2.952-1.128 4.68-1.128 1.408 0 2.688.232 3.84.696s2.12 1.144 2.904 2.04l-1.968 1.92c-1.28-1.28-2.824-1.92-4.632-1.92-1.184 0-2.24.248-3.168.744a5.53 5.53 0 00-2.16 2.088c-.512.896-.768 1.92-.768 3.072 0 1.12.256 2.128.768 3.024a5.704 5.704 0 002.16 2.112c.928.512 1.976.768 3.144.768 1.312 0 2.464-.288 3.456-.864z" fill="#fff"/></svg>