<svg width="32" height="32" viewBox="0 0 32 32" fill="none" xmlns="http://www.w3.org/2000/svg">
<path d="M23.843 17.5734H23.8497C23.8497 17.5734 21.3364 21.2601 19.223 24.0001C17.3964 26.3667 16.863 28.3934 16.7097 29.3734C16.6497 29.7334 16.3564 30.0001 16.003 30.0001C15.6497 30.0001 15.3564 29.7334 15.2964 29.3734C15.143 28.3934 14.6097 26.3667 12.783 24.0001C12.503 23.6334 12.2164 23.2534 11.9297 22.8667L18.8297 14.6667L24.383 8.08008C24.9964 9.36674 25.3364 10.8067 25.3364 12.3334C25.3364 14.2667 24.783 16.0601 23.843 17.5734Z" fill="#48B564"/>
<path d="M18.825 14.6667L11.925 22.8667C10.045 20.3467 8.15167 17.5733 8.15167 17.5733H8.15833C7.95833 17.2533 7.77833 16.9267 7.625 16.5867L13.1717 10C12.645 10.6333 12.3317 11.4467 12.3317 12.3333C12.3317 14.36 13.9717 16 15.9983 16C17.1383 16 18.1583 15.48 18.825 14.6667Z" fill="#FCC60E"/>
<path d="M18.9304 3.15984L13.2171 9.9465L8.84375 6.13317C10.5504 4.01317 13.1238 2.6665 15.9971 2.6665C17.0238 2.6665 18.0104 2.83984 18.9304 3.15984Z" fill="#2C85EB"/>
<path d="M13.2174 9.94615L13.1707 9.99948L7.62406 16.5861C7.01073 15.2995 6.66406 13.8595 6.66406 12.3328C6.66406 9.97281 7.48406 7.80615 8.84406 6.13281L13.2174 9.94615Z" fill="#ED5748"/>
<path d="M18.8252 14.6668C19.3519 14.0335 19.6652 13.2202 19.6652 12.3335C19.6652 10.3068 18.0252 8.66682 15.9985 8.66682C14.8585 8.66682 13.8385 9.18682 13.1719 10.0002L18.9319 3.16016C21.3252 3.97349 23.2852 5.76682 24.3785 8.08016L18.8252 14.6668Z" fill="#5695F6"/>
</svg>
