<svg width="16" height="16" viewBox="0 0 16 16" fill="none" xmlns="http://www.w3.org/2000/svg">
<path d="M11.9215 8.78658H11.9248C11.9248 8.78658 10.6682 10.6299 9.61151 11.9999C8.69818 13.1833 8.43151 14.1966 8.35484 14.6866C8.32484 14.8666 8.17818 14.9999 8.00151 14.9999C7.82484 14.9999 7.67818 14.8666 7.64818 14.6866C7.57151 14.1966 7.30484 13.1833 6.39151 11.9999C6.25151 11.8166 6.10818 11.6266 5.96484 11.4333L9.41484 7.33325L12.1915 4.03992C12.4982 4.68325 12.6682 5.40325 12.6682 6.16658C12.6682 7.13325 12.3915 8.02992 11.9215 8.78658Z" fill="#48B564"/>
<path d="M9.4125 7.33333L5.9625 11.4333C5.0225 10.1733 4.07583 8.78667 4.07583 8.78667H4.07917C3.97917 8.62667 3.88917 8.46333 3.8125 8.29333L6.58583 5C6.3225 5.31667 6.16583 5.72333 6.16583 6.16667C6.16583 7.18 6.98583 8 7.99917 8C8.56917 8 9.07917 7.74 9.4125 7.33333Z" fill="#FCC60E"/>
<path d="M9.46521 1.57998L6.60854 4.97331L4.42188 3.06665C5.27521 2.00665 6.56188 1.33331 7.99854 1.33331C8.51188 1.33331 9.00521 1.41998 9.46521 1.57998Z" fill="#2C85EB"/>
<path d="M6.6087 4.97332L6.58536 4.99998L3.81203 8.29332C3.50536 7.64998 3.33203 6.92998 3.33203 6.16665C3.33203 4.98665 3.74203 3.90332 4.42203 3.06665L6.6087 4.97332Z" fill="#ED5748"/>
<path d="M9.4126 7.33329C9.67594 7.01662 9.8326 6.60996 9.8326 6.16662C9.8326 5.15329 9.0126 4.33329 7.99927 4.33329C7.42927 4.33329 6.91927 4.59329 6.58594 4.99996L9.46594 1.57996C10.6626 1.98662 11.6426 2.88329 12.1893 4.03996L9.4126 7.33329Z" fill="#5695F6"/>
</svg>
