<svg width="88" height="88" viewBox="0 0 88 88" fill="none" xmlns="http://www.w3.org/2000/svg">
<path d="M40.3346 22H47.668V14.6666H40.3346V22ZM77.0013 14.6666H47.668V22H40.3346V14.6666H11.0013C6.95697 14.6666 3.66797 17.9556 3.66797 22V66C3.66797 70.0443 6.95697 73.3333 11.0013 73.3333H77.0013C81.0456 73.3333 84.3346 70.0443 84.3346 66V22C84.3346 17.9556 81.0456 14.6666 77.0013 14.6666ZM29.3346 29.3333C33.489 29.3333 36.668 32.5123 36.668 36.6666C36.668 40.821 33.489 44 29.3346 44C25.1803 44 22.0013 40.821 22.0013 36.6666C22.0013 32.5123 25.1803 29.3333 29.3346 29.3333ZM44.0013 58.6666H14.668C14.668 58.091 14.668 56.3786 14.668 55.7956C14.668 50.9996 21.323 47.6666 29.3346 47.6666C37.3463 47.6666 44.0013 50.9996 44.0013 55.7956C44.0013 56.3786 44.0013 58.091 44.0013 58.6666ZM73.3346 55H51.3346V47.6666H73.3346V55ZM73.3346 40.3333H51.3346V33H73.3346V40.3333Z" fill="#D5D5D5"/>
</svg>
