<svg width="40" height="40" viewBox="0 0 40 40" fill="none" xmlns="http://www.w3.org/2000/svg">
<path d="M19.1005 34.8102L19.1 34.8096C18.8947 34.5615 16.3173 31.4172 13.7941 27.4102C12.5324 25.4066 11.2904 23.197 10.3653 21.0329C9.43681 18.861 8.84473 16.7741 8.84473 15.005C8.84473 8.85445 13.8492 3.84998 19.9997 3.84998C26.1503 3.84998 31.1547 8.85283 31.1547 15.005C31.1547 16.7741 30.5626 18.8609 29.6342 21.0326C28.7091 23.1966 27.4671 25.4061 26.2054 27.4096C23.6822 31.4163 21.1049 34.5605 20.899 34.8102L20.899 34.8102L19.9997 35.9007L19.1005 34.8102Z" fill="#4B96F3" stroke="white"/>
<path d="M19.9997 10C19.9113 9.99876 19.8236 10.0151 19.7416 10.048C19.6597 10.081 19.5851 10.1299 19.5221 10.1919C19.4592 10.2539 19.4093 10.3278 19.3752 10.4093C19.3411 10.4909 19.3235 10.5783 19.3235 10.6667C19.3235 10.755 19.3411 10.8425 19.3752 10.924C19.4093 11.0055 19.4592 11.0794 19.5221 11.1414C19.5851 11.2035 19.6597 11.2524 19.7416 11.2853C19.8236 11.3183 19.9113 11.3346 19.9997 11.3333H20.1051C19.8765 11.8579 19.6381 12.513 19.4827 13.2982C18.9764 12.9082 18.3505 12.6667 17.6663 12.6667C16.1313 12.6667 14.8694 13.8414 14.7002 15.3333H13.9997C13.6317 15.3333 13.333 15.632 13.333 16V17.3333C13.333 17.42 13.3498 17.5059 13.3825 17.5859L15.0192 21.5859C15.1219 21.8366 15.3651 22 15.6364 22H24.3643C24.6349 22 24.8788 21.8366 24.9814 21.5859L26.6182 17.5859C26.6502 17.5059 26.6663 17.42 26.6663 17.3333V16C26.6663 15.632 26.3677 15.3333 25.9997 15.3333H25.333V14.6667C25.333 13.3502 24.9173 12.1511 24.5609 11.3333H24.6663C24.7547 11.3346 24.8424 11.3183 24.9244 11.2853C25.0063 11.2524 25.081 11.2035 25.1439 11.1414C25.2068 11.0794 25.2567 11.0055 25.2908 10.924C25.3249 10.8425 25.3425 10.755 25.3425 10.6667C25.3425 10.5783 25.3249 10.4909 25.2908 10.4093C25.2567 10.3278 25.2068 10.2539 25.1439 10.1919C25.081 10.1299 25.0063 10.081 24.9244 10.048C24.8424 10.0151 24.7547 9.99876 24.6663 10H19.9997ZM21.5908 11.3333H23.0752C23.2982 11.7615 23.9997 13.17 23.9997 14.6667V15.3333H20.6663V14.6667C20.6663 13.17 21.3678 11.7615 21.5908 11.3333ZM17.6663 14C18.4804 14 19.147 14.5676 19.2992 15.3333H16.0335C16.1856 14.5676 16.8522 14 17.6663 14Z" fill="white"/>
</svg>
