<svg width="32" height="32" viewBox="0 0 32 32" fill="none" xmlns="http://www.w3.org/2000/svg">
<path d="M31.8575 9.42541C31.7788 7.72924 31.5078 6.5664 31.1143 5.55219C30.7034 4.50301 30.1613 3.6112 29.2783 2.72814C28.3952 1.84508 27.5034 1.29426 26.4542 0.892079C25.44 0.498636 24.2772 0.227598 22.581 0.148909C20.8761 0.0702207 20.334 0.0527344 16.0061 0.0527344C11.6695 0.0527344 11.1274 0.0702207 9.43127 0.148909C7.7351 0.227598 6.57225 0.498636 5.55805 0.892079C4.50887 1.30301 3.61706 1.84508 2.734 2.72814C1.85094 3.6112 1.30012 4.50301 0.897938 5.55219C0.504495 6.5664 0.233457 7.72924 0.154769 9.42541C0.0760801 11.1303 0.0585938 11.6724 0.0585938 16.0003C0.0585938 20.3369 0.0760801 20.879 0.154769 22.5751C0.233457 24.2713 0.504495 25.4342 0.897938 26.4484C1.30887 27.4975 1.85094 28.3893 2.734 29.2724C3.61706 30.1555 4.50887 30.7063 5.55805 31.1085C6.57225 31.5019 7.7351 31.773 9.43127 31.8516C11.1362 31.9303 11.6783 31.9478 16.0061 31.9478C20.3427 31.9478 20.8848 31.9303 22.581 31.8516C24.2772 31.773 25.44 31.5019 26.4542 31.1085C27.5034 30.6975 28.3952 30.1555 29.2783 29.2724C30.1613 28.3893 30.7121 27.4975 31.1143 26.4484C31.5078 25.4342 31.7788 24.2713 31.8575 22.5751C31.9362 20.8702 31.9537 20.3281 31.9537 16.0003C31.9537 11.6724 31.9362 11.1216 31.8575 9.42541ZM28.9897 22.444C28.9198 24.0003 28.6575 24.8484 28.4389 25.4079C28.1504 26.1511 27.8007 26.6844 27.2411 27.244C26.6815 27.8036 26.1482 28.1445 25.405 28.4418C24.8455 28.6604 23.9974 28.9227 22.4411 28.9926C20.7624 29.0713 20.2553 29.0888 15.9974 29.0888C11.7395 29.0888 11.2324 29.0713 9.55368 28.9926C7.99739 28.9227 7.1493 28.6604 6.58974 28.4418C5.84657 28.1533 5.31324 27.8036 4.75368 27.244C4.19411 26.6844 3.85313 26.1511 3.55586 25.4079C3.33728 24.8484 3.07499 24.0003 3.00504 22.444C2.92635 20.7653 2.90887 20.2582 2.90887 16.0003C2.90887 11.7424 2.92635 11.2352 3.00504 9.55656C3.07499 8.00028 3.33728 7.15219 3.55586 6.59263C3.84439 5.84946 4.19411 5.31612 4.75368 4.75656C5.31324 4.197 5.84657 3.85601 6.58974 3.55875C7.1493 3.34017 7.99739 3.07787 9.55368 3.00793C11.2324 2.92924 11.7395 2.91175 15.9974 2.91175C20.2553 2.91175 20.7624 2.92924 22.4411 3.00793C23.9974 3.07787 24.8455 3.34017 25.405 3.55875C26.1482 3.84727 26.6815 4.197 27.2411 4.75656C27.8007 5.31612 28.1417 5.84946 28.4389 6.59263C28.6575 7.15219 28.9198 8.00028 28.9897 9.55656C29.0684 11.2352 29.0859 11.7424 29.0859 16.0003C29.0859 20.2582 29.0597 20.7653 28.9897 22.444Z" fill="url(#paint0_linear)"/>
<path d="M16.0009 7.80811C11.472 7.80811 7.80859 11.4802 7.80859 16.0005C7.80859 20.5294 11.4807 24.1928 16.0009 24.1928C20.5212 24.1928 24.1933 20.5207 24.1933 16.0005C24.1933 11.4715 20.5299 7.80811 16.0009 7.80811ZM16.0009 21.3163C13.0632 21.3163 10.6851 18.9382 10.6851 16.0005C10.6851 13.0627 13.0632 10.6846 16.0009 10.6846C18.9386 10.6846 21.3168 13.0627 21.3168 16.0005C21.3168 18.9382 18.9386 21.3163 16.0009 21.3163Z" fill="url(#paint1_linear)"/>
<path d="M24.5162 9.39916C25.5737 9.39916 26.4309 8.54193 26.4309 7.48449C26.4309 6.42705 25.5737 5.56982 24.5162 5.56982C23.4588 5.56982 22.6016 6.42705 22.6016 7.48449C22.6016 8.54193 23.4588 9.39916 24.5162 9.39916Z" fill="#BC30A0"/>
<path d="M0.0429688 16.0003C0.0429688 20.3369 0.0604551 20.879 0.139144 22.5751C0.217832 24.2713 0.48887 25.4342 0.882313 26.4484C1.29324 27.4975 1.83532 28.3893 2.71838 29.2724C3.60144 30.1555 4.49324 30.7063 5.54242 31.1085C6.55663 31.5019 7.71947 31.773 9.41565 31.8516C11.1206 31.9303 11.6626 31.9478 15.9905 31.9478C20.3271 31.9478 20.8692 31.9303 22.5654 31.8516C24.2616 31.773 25.4244 31.5019 26.4386 31.1085C27.4878 30.6975 28.3796 30.1555 29.2626 29.2724C30.1457 28.3893 30.6965 27.4975 31.0987 26.4484C31.4922 25.4342 31.7632 24.2713 31.8419 22.5751C31.9206 20.8702 31.9381 20.3281 31.9381 16.0003C31.9381 11.6637 31.9206 11.1216 31.8419 9.42541C31.7632 7.72924 31.4922 6.5664 31.0987 5.55219C30.6878 4.50301 30.1457 3.6112 29.2626 2.72814C28.3796 1.84508 27.4878 1.29426 26.4386 0.892079C25.4244 0.498636 24.2616 0.227598 22.5654 0.148909C20.8605 0.0702207 20.3184 0.0527344 15.9905 0.0527344C11.6539 0.0527344 11.1118 0.0702207 9.41565 0.148909C7.71947 0.227598 6.55663 0.498636 5.54242 0.892079C4.49324 1.30301 3.60144 1.84508 2.71838 2.72814C1.83532 3.6112 1.2845 4.50301 0.882313 5.55219C0.48887 6.5664 0.217832 7.72924 0.139144 9.42541C0.0604551 11.1216 0.0429688 11.6637 0.0429688 16.0003ZM2.91947 16.0003C2.91947 11.7424 2.93696 11.2352 3.01565 9.55656C3.08559 8.00028 3.34789 7.15219 3.56647 6.59263C3.85499 5.84946 4.20472 5.31612 4.76428 4.75656C5.32384 4.197 5.85718 3.85601 6.60035 3.55875C7.15991 3.34017 8.008 3.07787 9.56428 3.00793C11.243 2.92924 11.7501 2.91175 16.008 2.91175C20.2659 2.91175 20.773 2.92924 22.4517 3.00793C24.008 3.07787 24.8561 3.34017 25.4156 3.55875C26.1588 3.84727 26.6922 4.197 27.2517 4.75656C27.8113 5.31612 28.1523 5.84946 28.4495 6.59263C28.6681 7.15219 28.9304 8.00028 29.0003 9.55656C29.079 11.2352 29.0965 11.7424 29.0965 16.0003C29.0965 20.2582 29.079 20.7653 29.0003 22.444C28.9304 24.0003 28.6681 24.8484 28.4495 25.4079C28.161 26.1511 27.8113 26.6844 27.2517 27.244C26.6922 27.8036 26.1588 28.1445 25.4156 28.4418C24.8561 28.6604 24.008 28.9227 22.4517 28.9926C20.773 29.0713 20.2659 29.0888 16.008 29.0888C11.7501 29.0888 11.243 29.0713 9.56428 28.9926C8.008 28.9227 7.15991 28.6604 6.60035 28.4418C5.85718 28.1533 5.32384 27.8036 4.76428 27.244C4.20472 26.6844 3.86373 26.1511 3.56647 25.4079C3.34789 24.8484 3.08559 24.0003 3.01565 22.444C2.93696 20.7653 2.91947 20.2582 2.91947 16.0003Z" fill="url(#paint2_linear)"/>
<defs>
<linearGradient id="paint0_linear" x1="10.4656" y1="-2.50557" x2="20.9167" y2="32.4569" gradientUnits="userSpaceOnUse">
<stop stop-color="#4367DC"/>
<stop offset="0.04289" stop-color="#4C62D6"/>
<stop offset="0.1142" stop-color="#6654C7"/>
<stop offset="0.2045" stop-color="#8F3DAE"/>
<stop offset="0.2341" stop-color="#9E35A5"/>
<stop offset="0.4512" stop-color="#D42F7F"/>
<stop offset="0.8242" stop-color="#D73578"/>
</linearGradient>
<linearGradient id="paint1_linear" x1="19.91" y1="9.42806" x2="11.5317" y2="23.5148" gradientUnits="userSpaceOnUse">
<stop offset="0.3304" stop-color="#D42F7F"/>
<stop offset="1" stop-color="#F7772E"/>
</linearGradient>
<linearGradient id="paint2_linear" x1="19.9299" y1="6.62535" x2="9.65392" y2="31.1345" gradientUnits="userSpaceOnUse">
<stop stop-color="#9E35A5" stop-opacity="0"/>
<stop offset="0.4512" stop-color="#D42F7F" stop-opacity="0.5"/>
<stop offset="0.7524" stop-color="#F7772E"/>
<stop offset="1" stop-color="#FEF780"/>
</linearGradient>
</defs>
</svg>
