<svg width="40" height="40" viewBox="0 0 40 40" fill="none" xmlns="http://www.w3.org/2000/svg">
<path d="M19.1005 34.8102L19.1 34.8096C18.8947 34.5615 16.3173 31.4172 13.7941 27.4102C12.5324 25.4066 11.2904 23.197 10.3653 21.0329C9.43681 18.861 8.84473 16.7741 8.84473 15.005C8.84473 8.85445 13.8492 3.84998 19.9997 3.84998C26.1503 3.84998 31.1547 8.85283 31.1547 15.005C31.1547 16.7741 30.5626 18.8609 29.6342 21.0326C28.7091 23.1966 27.4671 25.4061 26.2054 27.4096C23.6822 31.4163 21.1049 34.5605 20.899 34.8102L20.899 34.8102L19.9997 35.9007L19.1005 34.8102Z" fill="#FF6767" stroke="white"/>
<path d="M20.0118 9.3333C19.9146 9.33156 19.8181 9.35111 19.7293 9.39059L13.7293 12.0573C13.7245 12.0598 13.7197 12.0624 13.7149 12.0651C13.7017 12.0707 13.6887 12.0768 13.6759 12.0833C13.6702 12.0867 13.6645 12.0902 13.659 12.0937C13.6447 12.1023 13.6308 12.1114 13.6173 12.1211C13.608 12.1278 13.5989 12.1347 13.5899 12.1419C13.586 12.1449 13.5821 12.1479 13.5782 12.151C13.5634 12.163 13.549 12.1756 13.5353 12.1888C13.5326 12.1918 13.53 12.1948 13.5274 12.1979C13.4991 12.2263 13.4734 12.2573 13.4506 12.2903C13.448 12.2942 13.4454 12.2981 13.4428 12.302C13.4205 12.3358 13.4013 12.3716 13.3855 12.4088C13.3842 12.4118 13.3829 12.4149 13.3816 12.4179C13.3759 12.4325 13.3707 12.4473 13.366 12.4622C13.3632 12.4704 13.3606 12.4786 13.3582 12.4869C13.3553 12.4986 13.3526 12.5103 13.3504 12.5221C13.3479 12.5329 13.3457 12.5437 13.3438 12.5547C13.3412 12.5698 13.339 12.585 13.3373 12.6002C13.3369 12.6037 13.3364 12.6072 13.336 12.6106C13.3333 12.6396 13.3324 12.6688 13.3334 12.6979V19.3333C13.3334 19.4623 13.3708 19.5885 13.441 19.6966C13.5113 19.8048 13.6114 19.8903 13.7293 19.9427L19.7293 22.6093C19.7555 22.6206 19.7825 22.6302 19.81 22.638C19.8109 22.6383 19.8117 22.639 19.8126 22.6393C19.8735 22.6573 19.9366 22.6665 20.0001 22.6666C20.0009 22.6666 20.0019 22.6666 20.0027 22.6666C20.0937 22.6662 20.1837 22.6471 20.267 22.6106C20.2683 22.6101 20.2696 22.6099 20.2709 22.6093L26.2709 19.9427C26.5123 19.8353 26.6668 19.5966 26.6668 19.3333V12.7018C26.6729 12.579 26.645 12.4568 26.586 12.3489C26.5856 12.3481 26.5852 12.3472 26.5847 12.3463C26.5589 12.2988 26.5274 12.2547 26.491 12.2148H26.4897V12.2135C26.4521 12.1733 26.4097 12.1378 26.3634 12.108C26.3621 12.1072 26.3608 12.1063 26.3595 12.1054C26.3312 12.0872 26.3016 12.0711 26.2709 12.0573L20.2709 9.39059C20.1893 9.35432 20.1012 9.33484 20.0118 9.3333ZM20.0001 10.7291L24.3582 12.6666L20.0014 14.6041H20.0001L15.642 12.6666L20.0001 10.7291ZM14.6668 13.6927L19.3334 15.7669V20.9739L14.6668 18.8997V13.6927ZM16.5991 15.3333L15.2319 18.3815L16.0366 18.7408L16.2892 18.0989L17.6134 18.6888L17.8673 19.5547L18.6668 19.9114L17.2983 15.6484L16.5991 15.3333ZM16.9493 16.414L17.409 17.9882L16.4936 17.5794L16.9493 16.414Z" fill="white"/>
</svg>
