<svg fill="none" height="23" width="20" xmlns="http://www.w3.org/2000/svg"><path d="M5.333.333V1.5H.666v2.333h1.167V22.5h16.333V3.833h1.167V1.5h-4.667V.333zm-1.167 3.5h2.333v2.334H4.166zm4.667 0h2.333v2.334H8.833zm4.666 0h2.334v2.334h-2.334zM4.166 8.5h2.333v2.333H4.166zm4.667 0h2.333v2.333H8.833zm4.666 0h2.334v2.333h-2.334zm-9.333 4.667h2.333V15.5H4.166zm4.667 0h2.333V15.5H8.833zm4.666 0h2.334V15.5h-2.334zm-9.333 4.666h2.333v2.334H4.166zm4.667 0h2.333v2.334H8.833zm4.666 0h2.334v2.334h-2.334z" fill="#888"/></svg>