<svg width="36" height="32" viewBox="0 0 36 32" fill="none" xmlns="http://www.w3.org/2000/svg">
<g clip-path="url(#clip0)">
<path fill-rule="evenodd" clip-rule="evenodd" d="M35.2 32H27.4203V20.7507C27.4203 17.8062 26.2034 15.7961 23.5274 15.7961C21.4805 15.7961 20.3422 17.1526 19.8124 18.4599C19.6137 18.9291 19.6448 19.5828 19.6448 20.2364V32H11.9375C11.9375 32 12.0369 12.073 11.9375 10.2616H19.6448V13.6733C20.1001 12.1816 22.5629 10.0526 26.4931 10.0526C31.3691 10.0526 35.2 13.1795 35.2 19.9127V32ZM4.14336 7.54255H4.0937C1.61016 7.54255 0 5.88076 0 3.77434C0 1.62694 1.65776 0 4.19097 0C6.72211 0 8.27845 1.62286 8.32813 3.76821C8.32813 5.87464 6.7221 7.54255 4.14336 7.54255ZM0.887842 10.2616H7.74863V32H0.887842V10.2616Z" fill="#007EBB"/>
</g>
<defs>
<clipPath id="clip0">
<rect width="35.2" height="32" fill="white"/>
</clipPath>
</defs>
</svg>
