<svg fill="none" height="24" width="24" xmlns="http://www.w3.org/2000/svg"><linearGradient id="a" gradientUnits="userSpaceOnUse" x1="3.412" x2="20.477" y1="12.664" y2="12.678"><stop offset="0" stop-color="#11bdfd"/><stop offset="1" stop-color="#9c3ee5"/></linearGradient><path d="M4 3.2a.8.8 0 00-.8.8v3.2A.8.8 0 004 8h4a.8.8 0 00.8-.8V4a.8.8 0 00-.8-.8zm8 1.6a.8.8 0 100 1.6h8a.8.8 0 100-1.6zM4 9.6a.8.8 0 00-.8.8v3.2a.8.8 0 00.8.8h4a.8.8 0 00.8-.8v-3.2a.8.8 0 00-.8-.8zm8 1.6a.8.8 0 100 1.6h8a.8.8 0 100-1.6zM4 16a.8.8 0 00-.8.8V20a.8.8 0 00.8.8h4a.8.8 0 00.8-.8v-3.2A.8.8 0 008 16zm8 1.6a.8.8 0 100 1.6h8a.8.8 0 100-1.6z" fill="url(#a)"/></svg>