<svg fill="none" height="24" width="24" xmlns="http://www.w3.org/2000/svg"><linearGradient id="a" gradientUnits="userSpaceOnUse" x1="1.226" x2="22.62" y1="12.982" y2="12.999"><stop offset="0" stop-color="#11bdfd"/><stop offset="1" stop-color="#9c3ee5"/></linearGradient><path d="M5.76.96a4.804 4.804 0 00-4.8 4.8c0 3.028 4.247 8.244 4.429 8.466l.371.45.37-.45c.181-.22 4.43-5.406 4.43-8.466 0-2.647-2.153-4.8-4.8-4.8zm0 3.36a1.44 1.44 0 110 2.88 1.44 1.44 0 010-2.88zM18.24 9.6a4.804 4.804 0 00-4.8 4.8c0 2.981 4.247 8.24 4.427 8.462l.371.456.371-.45c.182-.22 4.431-5.393 4.431-8.468 0-2.647-2.152-4.8-4.8-4.8zm0 3.36a1.44 1.44 0 110 2.88 1.44 1.44 0 010-2.88z" fill="url(#a)"/></svg>