<svg width="28" height="28" viewBox="0 0 28 28" fill="none" xmlns="http://www.w3.org/2000/svg">
<path d="M5.83333 3.5C4.55 3.5 3.5 4.55 3.5 5.83333V22.1667C3.5 23.45 4.55 24.5 5.83333 24.5H22.1667C23.45 24.5 24.5 23.45 24.5 22.1667V5.83333C24.5 4.55 23.45 3.5 22.1667 3.5H5.83333ZM14 8.16667C15.6333 8.16667 16.6833 8.51758 17.5 9.10091C18.2 9.68424 18.6667 10.6162 18.6667 11.7829C18.6667 12.9495 18.3162 13.8838 17.6162 14.4671C16.6829 15.2838 15.4005 15.6338 13.8838 15.6338C13.5338 15.6338 13.0667 15.5176 12.8333 15.5176V18.6667C12.8333 19.3667 12.3667 19.8333 11.6667 19.8333C10.9667 19.8333 10.5 19.3667 10.5 18.6667V8.39909C11.3167 8.28242 12.3667 8.16667 14 8.16667ZM14.1162 10.1491C13.5329 10.1491 13.0667 10.2676 12.8333 10.2676V13.5329C13.0667 13.5329 13.5338 13.6491 13.8838 13.6491C15.2838 13.6491 16.1009 12.9495 16.1009 11.7829C16.1009 10.7329 15.3995 10.1491 14.1162 10.1491Z" fill="#888888"/>
</svg>
