<svg width="88" height="88" viewBox="0 0 88 88" fill="none" xmlns="http://www.w3.org/2000/svg">
<path d="M48.0728 25.2999C48.5495 24.8599 48.8795 24.3099 49.1362 23.7233C47.5228 23.0999 45.7995 22.7333 44.0028 22.7333C43.9295 22.7333 43.8562 22.7699 43.7462 22.7699C43.8195 23.2099 43.8928 23.9066 43.9295 23.9799C44.0395 24.8599 43.6362 25.5199 43.5628 26.3999C43.4895 26.9133 43.4895 27.7933 43.9662 28.1599C44.0762 28.2333 44.1495 28.2699 44.2595 28.2699C44.4795 28.3066 44.6995 28.1599 44.9195 27.9766C45.4695 27.5366 45.9828 27.0599 46.5328 26.6199C47.0462 26.1799 47.5595 25.7399 48.0728 25.2999ZM52.6928 25.8866C52.6195 25.9966 52.5095 26.1066 52.4362 26.2166C52.0328 26.7299 51.6295 27.2799 51.2628 27.8299C51.0795 28.0499 50.9328 28.3799 51.0795 28.5999C51.1528 28.7099 51.2995 28.7833 51.4095 28.8566C51.7028 28.9666 51.9962 29.0766 52.2528 29.1866C52.3995 29.2599 52.5462 29.3699 52.5095 29.4799C52.5095 29.5533 52.4728 29.5899 52.4362 29.6266C51.5195 30.5066 50.5295 31.2399 49.6128 32.1199C49.4295 32.3033 49.2095 32.5966 49.3195 32.8533C49.3928 32.9999 49.5395 33.1099 49.5395 33.2566C49.5395 33.4399 49.3195 33.5133 49.1362 33.5866C48.8795 33.6966 48.4028 33.9166 48.2195 34.1733C47.9995 34.5033 48.1462 35.0166 48.0728 35.4199C47.8528 36.2633 47.3028 37.1433 46.8995 37.9499C46.6062 38.4999 46.3495 39.0133 46.0562 39.5633C46.0195 40.2599 45.8728 40.7733 46.3128 41.3966C47.2662 42.7166 48.9528 42.0199 50.2728 42.4599C50.5662 42.5699 50.8962 42.7166 51.1162 42.9733C51.5928 43.5233 51.7028 44.3666 51.9228 45.0633C52.1428 45.7966 52.3628 46.5299 52.5828 47.2266C52.5828 47.3366 52.6195 47.4099 52.6562 47.5199C55.8462 44.9533 57.9362 41.0666 57.9362 36.6666C57.9362 32.3033 55.8828 28.4166 52.6928 25.8866Z" fill="#D5D5D5"/>
<path d="M66.0013 7.33337H22.0013C17.9496 7.33337 14.668 10.615 14.668 14.6667V73.3334C14.668 77.385 17.9496 80.6667 22.0013 80.6667H66.0013C70.053 80.6667 73.3346 77.385 73.3346 73.3334V14.6667C73.3346 10.615 70.053 7.33337 66.0013 7.33337ZM58.668 69.6667H29.3346V62.3334H58.668V69.6667ZM44.0013 55C33.8813 55 25.668 46.7867 25.668 36.6667C25.668 26.5467 33.8813 18.3334 44.0013 18.3334C54.1213 18.3334 62.3346 26.5467 62.3346 36.6667C62.3346 46.7867 54.1213 55 44.0013 55Z" fill="#D5D5D5"/>
<path d="M43.3397 44.44C42.1664 44.0734 40.9931 44.0734 40.2231 43.0834C39.9664 42.79 40.0031 42.35 39.7464 42.0567C39.4164 41.69 38.4631 41.5067 38.0231 41.36C37.2531 41.3234 36.4831 41.2867 35.7131 41.25C35.2731 41.25 34.7964 41.2867 34.3564 41.2134C33.7697 41.1034 33.4764 40.2234 33.1831 39.71C33.0364 39.5267 32.9264 39.3067 32.7064 39.2334C32.3764 39.1234 31.9731 39.3434 31.6797 39.16C31.4964 39.05 31.4231 38.83 31.4231 38.61C31.4597 38.0967 31.7531 37.4734 32.1564 37.1434C32.6331 36.7767 33.2564 37.2534 33.7697 37.4367C33.8797 37.4734 34.0264 37.51 34.0997 37.5834C34.5764 37.84 34.7597 38.4267 34.7964 38.9767C34.8331 39.1234 34.8331 39.27 34.9064 39.4167C34.9431 39.5267 35.0897 39.6367 35.2364 39.6367C35.3464 38.7567 35.4564 37.84 35.5297 36.96C35.6031 35.9334 36.6664 34.6867 37.5831 34.3567C37.9497 34.21 38.1697 34.43 38.4631 34.32C39.5997 33.88 42.2764 32.8534 41.8364 31.3867C41.4697 30.14 40.3331 28.8567 38.9031 29.04C38.5364 29.0767 38.2431 29.26 37.9497 29.48C37.4731 29.81 36.3364 30.9467 35.7131 30.91C34.8331 30.8367 34.7597 29.59 34.9797 28.9667C35.2364 28.16 36.8497 25.85 37.8397 26.2534C38.1697 26.3634 38.4264 26.6934 38.7197 26.8767C39.1597 27.1334 39.7097 27.1334 40.2231 27.1334C40.4431 27.1334 40.6264 27.0967 40.7731 26.9867C40.8831 26.8767 40.9197 26.6934 40.9197 26.5467C40.9197 25.96 40.4431 25.52 39.9664 25.1167C39.5264 24.7134 39.0497 24.31 38.4997 24.1634C38.3531 24.1267 38.2064 24.1267 38.0597 24.1267C33.3664 26.3634 30.0664 31.13 30.0664 36.6667C30.0664 37.8034 30.2497 38.9034 30.5064 39.9667C30.6531 40.0767 30.7997 40.26 30.9831 40.37C31.7531 41.03 33.2564 40.9934 33.8064 41.8367C34.3564 42.68 34.0997 43.56 34.1731 44.4767C34.2464 45.4667 34.7964 46.42 35.1631 47.3734C36.8131 48.73 38.7564 49.72 40.8831 50.2334C41.1764 49.8667 41.4331 49.5367 41.8364 49.28C42.2031 49.0234 42.6431 48.95 42.9364 48.5834C43.2664 48.18 43.4864 47.41 43.6331 46.8967C43.8164 46.3467 43.9997 45.6867 43.8897 45.0634C43.8164 44.77 43.6331 44.5134 43.3397 44.44Z" fill="#D5D5D5"/>
</svg>
