<svg fill="none" height="32" width="32" xmlns="http://www.w3.org/2000/svg"><path clip-rule="evenodd" d="M29.69 6.357a1 1 0 01.251.603c.241 3.82-.272 7.378-1.527 10.577a21.84 21.84 0 01-4.468 7.032c-3.342 3.546-6.89 5.086-7.567 5.358a1 1 0 01-.75 0c-.677-.272-4.225-1.812-7.567-5.358a21.842 21.842 0 01-4.477-7.032C2.33 14.338 1.817 10.78 2.058 6.96a1 1 0 01.822-.921c5.406-.97 7.663-1.671 12.708-3.95a1 1 0 01.823 0c5.045 2.279 7.302 2.98 12.708 3.95a1 1 0 01.57.318z" fill="#d19700" fill-rule="evenodd"/></svg>