<svg width="40" height="40" viewBox="0 0 40 40" fill="none" xmlns="http://www.w3.org/2000/svg">
<path d="M19.1005 34.8102L19.1 34.8096C18.8947 34.5615 16.3173 31.4172 13.7941 27.4102C12.5324 25.4066 11.2904 23.197 10.3653 21.0329C9.43681 18.861 8.84473 16.7741 8.84473 15.005C8.84473 8.85445 13.8492 3.84998 19.9997 3.84998C26.1503 3.84998 31.1547 8.85283 31.1547 15.005C31.1547 16.7741 30.5626 18.8609 29.6342 21.0326C28.7091 23.1966 27.4671 25.4061 26.2054 27.4096C23.6822 31.4163 21.1049 34.5605 20.899 34.8102L20.899 34.8102L19.9997 35.9007L19.1005 34.8102Z" fill="#92B07B" stroke="white"/>
<path d="M15.9997 9.33337L13.333 11.3334H18.6663L15.9997 9.33337ZM13.333 12V16H18.6663V12H13.333ZM15.9997 12.6667C16.734 12.6667 17.333 13.2657 17.333 14C17.333 14.7344 16.734 15.3334 15.9997 15.3334C15.2653 15.3334 14.6663 14.7344 14.6663 14C14.6663 13.2657 15.2653 12.6667 15.9997 12.6667ZM19.333 13.3334V16C23.2653 16 20.8669 22.6667 26.6663 22.6667V20.6667C22.6663 20.6667 24.6663 13.3334 19.333 13.3334ZM13.333 16.6667V22.6667H14.6663V16.6667H13.333ZM17.333 16.6667V18H15.333V19.3334H17.333V20.6667H15.333V22H17.333V22.6667H18.6663V16.6667H17.333Z" fill="white"/>
</svg>
