<?xml version="1.0" standalone="no"?>
<!DOCTYPE svg PUBLIC "-//W3C//DTD SVG 20010904//EN"
 "http://www.w3.org/TR/2001/REC-SVG-20010904/DTD/svg10.dtd">
<svg version="1.0" xmlns="http://www.w3.org/2000/svg"
 width="512.000000pt" height="512.000000pt" viewBox="0 0 512.000000 512.000000"
 preserveAspectRatio="xMidYMid meet">
<metadata>
Created by potrace 1.11, written by Peter Selinger 2001-2013
</metadata>
<g transform="translate(0.000000,512.000000) scale(0.100000,-0.100000)"
fill="#000000" stroke="none">
<path d="M1113 3614 c-118 -24 -161 -38 -250 -81 -328 -157 -547 -456 -609
-828 -12 -72 -6 -277 10 -355 33 -151 90 -290 169 -405 56 -82 197 -223 282
-280 488 -334 1154 -214 1493 268 24 34 52 79 63 99 l19 37 848 -1 848 0 2
-31 c3 -49 33 -97 74 -118 31 -16 59 -19 169 -19 141 0 179 10 210 53 9 13 41
77 72 142 30 66 64 140 75 165 11 25 76 164 143 310 132 288 148 330 142 374
-6 40 -38 83 -76 103 -29 15 -134 17 -1275 17 l-1242 1 -15 29 c-85 164 -301
361 -488 446 -72 32 -208 74 -278 86 -102 16 -275 11 -386 -12z m-13 -902
c124 -99 98 -287 -49 -348 -127 -53 -276 50 -272 188 1 75 28 124 90 168 66
46 167 42 231 -8z"/>
</g>
</svg>
