<svg width="40" height="40" viewBox="0 0 40 40" fill="none" xmlns="http://www.w3.org/2000/svg">
<path d="M19.1005 34.8102L19.1 34.8096C18.8947 34.5615 16.3173 31.4172 13.7941 27.4102C12.5324 25.4066 11.2904 23.197 10.3653 21.0329C9.43681 18.861 8.84473 16.7741 8.84473 15.005C8.84473 8.85445 13.8492 3.84998 19.9997 3.84998C26.1503 3.84998 31.1547 8.85283 31.1547 15.005C31.1547 16.7741 30.5626 18.8609 29.6342 21.0326C28.7091 23.1966 27.4671 25.4061 26.2054 27.4096C23.6822 31.4163 21.1049 34.5605 20.899 34.8102L20.899 34.8102L19.9997 35.9007L19.1005 34.8102Z" fill="#7B9EB0" stroke="white"/>
<path d="M19.9997 9.30334L13.1416 11.3619L13.5244 12.638L19.9997 10.6966L26.4749 12.638L26.8577 11.3619L19.9997 9.30334ZM13.333 14V21.3333C17.9997 21.3333 19.9997 23.3333 19.9997 23.3333C19.9997 23.3333 21.9997 21.3333 26.6663 21.3333V14C21.9997 14 19.9997 16 19.9997 16C19.9997 16 17.9997 14 13.333 14Z" fill="white"/>
</svg>
