<svg fill="none" height="28" width="20" xmlns="http://www.w3.org/2000/svg"><path d="M10.008.067a1.068 1.068 0 00-.738.312L5 4.646a1.067 1.067 0 101.509 1.508l2.448-2.446v13.425a1.066 1.066 0 001.828.765 1.068 1.068 0 00.307-.765V3.708l2.448 2.446a1.068 1.068 0 101.51-1.508L10.78.379a1.068 1.068 0 00-.772-.312zM3.618 8.6a3.218 3.218 0 00-3.202 3.2v12.8c0 1.755 1.447 3.2 3.203 3.2h12.81a3.218 3.218 0 003.204-3.2V11.8c0-1.755-1.447-3.2-3.203-3.2h-2.135v2.133h2.135a1.05 1.05 0 011.068 1.067v12.8a1.05 1.05 0 01-1.068 1.067H3.619A1.05 1.05 0 012.55 24.6V11.8a1.05 1.05 0 011.068-1.067h2.135V8.6z" fill="#222"/></svg>