<svg width="32" height="32" viewBox="0 0 32 32" fill="none" xmlns="http://www.w3.org/2000/svg">
<path d="M16 0C11.7565 0 7.68687 1.68571 4.68629 4.68629C1.68571 7.68687 0 11.7565 0 16C0 20.2435 1.68571 24.3131 4.68629 27.3137C7.68687 30.3143 11.7565 32 16 32C20.2435 32 24.3131 30.3143 27.3137 27.3137C30.3143 24.3131 32 20.2435 32 16C32 11.7565 30.3143 7.68687 27.3137 4.68629C24.3131 1.68571 20.2435 0 16 0Z" fill="#29B6F6"/>
<path d="M23.9598 8.79976L20.963 24.1006C20.963 24.1006 20.8342 24.7998 19.967 24.7998C19.5062 24.7998 19.2686 24.5806 19.2686 24.5806L12.7774 19.1942L9.60141 17.5934L5.5254 16.5094C5.5254 16.5094 4.7998 16.2998 4.7998 15.6998C4.7998 15.1998 5.5462 14.9614 5.5462 14.9614L22.599 8.18696C22.5982 8.18616 23.1198 7.99896 23.4998 7.99976C23.7334 7.99976 23.9998 8.09976 23.9998 8.39976C23.9998 8.59976 23.9598 8.79976 23.9598 8.79976Z" fill="white"/>
<path d="M15.2003 21.2038L12.4595 23.903C12.4595 23.903 12.3403 23.995 12.1811 23.999C12.1259 24.0006 12.0667 23.9918 12.0059 23.9646L12.7771 19.1926L15.2003 21.2038Z" fill="#B0BEC5"/>
<path d="M20.7172 11.3567C20.582 11.1807 20.3324 11.1487 20.1564 11.2823L9.59961 17.5999C9.59961 17.5999 11.2844 22.3135 11.5412 23.1295C11.7988 23.9463 12.0052 23.9655 12.0052 23.9655L12.7764 19.1935L20.642 11.9167C20.818 11.7831 20.8508 11.5327 20.7172 11.3567Z" fill="#CFD8DC"/>
</svg>
