<svg width="32" height="27" viewBox="0 0 32 27" fill="none" xmlns="http://www.w3.org/2000/svg">
<path fill-rule="evenodd" clip-rule="evenodd" d="M32 3.15686C30.8242 3.69231 29.5583 4.05442 28.2303 4.21621C29.5864 3.38414 30.627 2.06477 31.1172 0.493083C29.8475 1.26352 28.4445 1.824 26.9456 2.12447C25.751 0.816658 24.0437 0 22.1541 0C18.531 0 15.5915 3.01432 15.5915 6.73167C15.5915 7.25942 15.6478 7.77176 15.7605 8.26484C10.3042 7.98363 5.46763 5.30637 2.22762 1.22884C1.66226 2.22655 1.33919 3.38414 1.33919 4.61683C1.33919 6.95125 2.4981 9.01216 4.25991 10.2198C3.18554 10.1871 2.17127 9.88083 1.28473 9.38004V9.46286C1.28473 12.7256 3.54804 15.4472 6.55326 16.0636C6.00293 16.2215 5.42255 16.3005 4.82338 16.3005C4.40077 16.3005 3.98755 16.26 3.58748 16.181C4.42331 18.8545 6.84627 20.8017 9.72001 20.8537C7.47361 22.6604 4.64119 23.7371 1.56647 23.7371C1.0368 23.7371 0.512766 23.7063 0 23.6446C2.90568 25.5515 6.35792 26.6667 10.0637 26.6667C22.141 26.6667 28.7431 16.4103 28.7431 7.51366C28.7431 7.2209 28.7374 6.92813 28.7262 6.64114C30.009 5.69158 31.1229 4.50705 32 3.15686Z" fill="#00AAEC"/>
</svg>
