<svg width="39" height="32" viewBox="0 0 39 32" fill="none" xmlns="http://www.w3.org/2000/svg">
<g clip-path="url(#clip0)">
<path fill-rule="evenodd" clip-rule="evenodd" d="M38.4 3.78823C36.989 4.43078 35.4699 4.8653 33.8764 5.05945C35.5037 4.06097 36.7524 2.47772 37.3406 0.591699C35.817 1.51622 34.1333 2.1888 32.3347 2.54937C30.9012 0.97999 28.8524 0 26.585 0C22.2372 0 18.7098 3.61719 18.7098 8.078C18.7098 8.7113 18.7774 9.32612 18.9126 9.91781C12.365 9.58036 6.56115 6.36764 2.67314 1.47461C1.99472 2.67186 1.60703 4.06096 1.60703 5.5402C1.60703 8.3415 2.99772 10.8146 5.11189 12.2638C3.82265 12.2245 2.60552 11.857 1.54167 11.2561V11.3554C1.54167 15.2708 4.25765 18.5367 7.86392 19.2763C7.20352 19.4658 6.50706 19.5606 5.78806 19.5606C5.28093 19.5606 4.78507 19.512 4.30498 19.4173C5.30797 22.6254 8.21552 24.9621 11.664 25.0245C8.96833 27.1925 5.56942 28.4845 1.87976 28.4845C1.24416 28.4845 0.615319 28.4475 0 28.3736C3.48681 30.6618 7.62951 32 12.0765 32C26.5692 32 34.4917 19.6923 34.4917 9.01639C34.4917 8.66508 34.4849 8.31376 34.4714 7.96937C36.0108 6.8299 37.3474 5.40846 38.4 3.78823Z" fill="#00AAEC"/>
</g>
<defs>
<clipPath id="clip0">
<rect width="38.4" height="32" fill="white"/>
</clipPath>
</defs>
</svg>
