<svg fill="none" height="32" width="32" xmlns="http://www.w3.org/2000/svg"><path d="M29.941 6.96a1 1 0 00-.821-.921c-5.407-.97-7.664-1.671-12.709-3.95a1 1 0 00-.823 0c-5.045 2.279-7.302 2.98-12.708 3.95a1 1 0 00-.822.921c-.241 3.82.272 7.378 1.527 10.577a21.842 21.842 0 004.477 7.032c3.342 3.546 6.89 5.086 7.567 5.358a1 1 0 00.75 0c.677-.272 4.225-1.812 7.567-5.358a21.84 21.84 0 004.469-7.032c1.254-3.199 1.767-6.758 1.526-10.577zm-8.187 4.694l-6.925 8a1.001 1.001 0 01-.713.346h-.041a1 1 0 01-.7-.286L10.3 16.702a1 1 0 111.4-1.429l2.312 2.268 6.231-7.195a1 1 0 011.513 1.308z" fill="#82d100"/></svg>