<svg width="32" height="30" viewBox="0 0 32 30" fill="none" xmlns="http://www.w3.org/2000/svg">
<path fill-rule="evenodd" clip-rule="evenodd" d="M31.2657 6.28685C31.4881 5.54507 31.2657 5 30.207 5H26.7062C25.8161 5 25.4057 5.47086 25.1831 5.99008C25.1831 5.99008 23.4029 10.3295 20.8808 13.1482C20.0649 13.9641 19.694 14.2237 19.2489 14.2237C19.0264 14.2237 18.7043 13.9641 18.7043 13.2224V6.28686C18.7043 5.39671 18.446 5 17.7041 5H12.2028C11.6466 5 11.312 5.41314 11.312 5.80468C11.312 6.64852 12.573 6.84312 12.703 9.21683V14.3722C12.703 15.5024 12.4988 15.7074 12.0538 15.7074C10.867 15.7074 7.98009 11.3486 6.26791 6.361C5.93236 5.39159 5.59581 5 4.7011 5H1.20029C0.200057 5 0 5.47086 0 5.99008C0 6.91732 1.18685 11.5163 5.52618 17.5988C8.41905 21.7527 12.4949 24.0044 16.2038 24.0044C18.4291 24.0044 18.7043 23.5043 18.7043 22.6428V19.5034C18.7043 18.5031 18.9152 18.3035 19.6198 18.3035C20.1391 18.3035 21.0292 18.5631 23.1062 20.5659C25.4798 22.9396 25.8712 24.0044 27.2063 24.0044H30.7071C31.7074 24.0044 32.2075 23.5043 31.919 22.5173C31.6033 21.5337 30.47 20.1065 28.9662 18.4148C28.1502 17.4505 26.9263 16.412 26.5554 15.8927C26.0362 15.2252 26.1845 14.9284 26.5554 14.335C26.5554 14.335 30.8206 8.32668 31.2657 6.28685V6.28685Z" fill="#5181B8"/>
</svg>
