<svg width="24" height="24" viewBox="0 0 24 24" fill="none" xmlns="http://www.w3.org/2000/svg">
<path d="M20.4508 7.93043L19.6421 23.0087C19.616 23.5565 19.1465 24 18.5986 24H5.39864C4.85082 24 4.38125 23.5565 4.35516 23.0087L3.54647 7.93043C3.52038 7.35652 3.96386 6.86086 4.53777 6.83478C5.11168 6.80869 5.60734 7.25217 5.63342 7.82608L6.38995 21.913H17.6334L18.3899 7.82608C18.416 7.25217 18.9117 6.80869 19.4856 6.83478C20.0334 6.86086 20.4769 7.35652 20.4508 7.93043ZM23.216 4.43478C23.216 5.00869 22.7465 5.47826 22.1726 5.47826H1.82473C1.25082 5.47826 0.78125 5.00869 0.78125 4.43478C0.78125 3.86086 1.25082 3.3913 1.82473 3.3913H7.56386V1.04347C7.56386 0.547821 7.90299 0.260864 8.39864 0.260864H15.5986C16.0943 0.260864 16.4334 0.547821 16.4334 1.04347V3.3913H22.1726C22.7465 3.3913 23.216 3.86086 23.216 4.43478ZM9.38995 3.3913H14.6073V2.08695H9.38995V3.3913ZM9.83342 20.3478C10.3552 20.3478 10.7465 19.8522 10.7465 19.3565L10.4856 8.08695C10.4856 7.5913 10.0682 7.17391 9.54647 7.17391C9.05081 7.17391 8.63342 7.5913 8.65951 8.11304L8.92038 19.4087C8.92038 19.9043 9.33777 20.3478 9.83342 20.3478ZM14.1378 20.3478C14.6334 20.3478 15.0508 19.9304 15.0508 19.4348L15.3117 8.16521C15.3117 7.66956 14.9204 7.22608 14.4247 7.22608C13.903 7.22608 13.5117 7.61739 13.4856 8.11304L13.2247 19.3826C13.1986 19.9043 13.616 20.3478 14.1378 20.3478C14.1117 20.3478 14.1117 20.3478 14.1378 20.3478Z" fill="white"/>
</svg>
