<svg fill="none" height="40" width="40" xmlns="http://www.w3.org/2000/svg" xmlns:xlink="http://www.w3.org/1999/xlink"><linearGradient id="a"><stop offset="0" stop-color="#ffd480"/><stop offset=".503" stop-color="#f1c266"/><stop offset=".867" stop-color="#e6b450"/></linearGradient><radialGradient id="b" cx="0" cy="0" gradientTransform="matrix(2.18738 0 0 2.18431 18.158 8.434)" gradientUnits="userSpaceOnUse" r="1" xlink:href="#a"/><radialGradient id="c" cx="0" cy="0" gradientTransform="matrix(10.8079 0 0 10.7927 20 16.582)" gradientUnits="userSpaceOnUse" r="1" xlink:href="#a"/><linearGradient id="d" gradientUnits="userSpaceOnUse" x1="20" x2="20" y1="38.153" y2="14.257"><stop offset="0" stop-color="#004066"/><stop offset=".188" stop-color="#006dae"/><stop offset=".794" stop-color="#00a0ff"/></linearGradient><linearGradient id="e" gradientUnits="userSpaceOnUse" x1="20.001" x2="20.001" y1="38.75" y2="14.207"><stop offset="0" stop-color="#004b78"/><stop offset=".151" stop-color="#006dae"/><stop offset=".215" stop-color="#0676b9"/><stop offset=".464" stop-color="#1a95df"/><stop offset=".663" stop-color="#26a9f6"/><stop offset=".788" stop-color="#2bb0ff"/></linearGradient><path d="m18.546 10.59h-2.93c-1.82 0-1.823 2.066 0 2.066h3.346c.516 0 .834-.397 1.037-.599zm5.484-2.154c0 2.91-4.375 2.91-4.375 0 0-2.915 4.375-2.915 4.375 0z" fill="#c29843"/><path d="m18.963 8.132 2.49 2.458h2.93c1.822 0 1.823 2.066 0 2.066h-3.346a1.04 1.04 0 0 1 -.736-.3l-2.805-2.774c-.404-.399 1.062-1.85 1.467-1.45z" fill="#e6b450"/><path d="m20.345 8.436c0 2.91-4.375 2.91-4.375 0 0-2.915 4.375-2.915 4.375 0z" fill="url(#b)"/><path d="m30.813 12.534h-21.625c-5.234 0-5.234 8.095 0 8.095h21.625c5.233 0 5.233-8.095 0-8.095z" fill="url(#c)"/><path d="m7.96 15.107c-3.654 3.082-7.978 13.45-6.361 17.92.627 1.732 4.592 3.25 6.361 3.825 5.716 1.858 18.273 1.605 24.064 0 1.792-.496 5.735-2.093 6.362-3.824 1.616-4.47-2.443-15.174-6.362-17.92-1.65-1.157-22.745-1.112-24.064-.001z" fill="url(#d)"/><path d="m31.87 15.01c-.567-.603-6.419-.864-11.87-.792-5.45-.072-11.3.19-11.868.791 0 0-7.22 18.315 2.247 22.386 4.197 1.807 15.048 1.807 19.243 0 9.47-4.071 2.249-22.386 2.249-22.386z" fill="url(#e)"/><path d="m21.117 20.013c.665 3.269-2.9 3.269-2.235 0 1.21-5.938 1.027-5.938 2.235 0zm-5.531-.44c-1.712 2.811-4.234.139-1.58-1.675 4.819-3.293 4.69-3.43 1.58 1.675zm10.408-1.675c2.654 1.813.131 4.484-1.58 1.674-3.11-5.104-3.24-4.967 1.58-1.674z" fill="#019ee6"/></svg>