<svg fill="none" height="40" width="40" xmlns="http://www.w3.org/2000/svg" xmlns:xlink="http://www.w3.org/1999/xlink"><linearGradient id="c" gradientUnits="userSpaceOnUse" x1="29.791" x2="9.721" y1="32.854" y2="12.784"><stop offset="0" stop-color="#ffd94d"/><stop offset="1" stop-color="#f5af31"/></linearGradient><linearGradient id="d" gradientUnits="userSpaceOnUse" x1="39.187" x2="20.981" y1="21.424" y2="3.219"><stop offset="0" stop-color="#ffc55e"/><stop offset="1" stop-color="#ffd94d"/></linearGradient><linearGradient id="a"><stop offset="0" stop-color="#e09500"/><stop offset=".467" stop-color="#ffe173"/><stop offset=".548" stop-color="#fddd6d"/><stop offset=".661" stop-color="#f8d15b"/><stop offset=".792" stop-color="#f0bd3d"/><stop offset=".937" stop-color="#e5a214"/><stop offset="1" stop-color="#e09500"/></linearGradient><linearGradient id="e" gradientUnits="userSpaceOnUse" x1="31.471" x2="31.471" xlink:href="#a" y1="13.527" y2="5.655"/><linearGradient id="b"><stop offset="0" stop-color="#ffd94d"/><stop offset="1" stop-color="#d68e00"/></linearGradient><linearGradient id="f" gradientUnits="userSpaceOnUse" x1="15.564" x2="13.633" xlink:href="#b" y1="30.244" y2="28.313"/><linearGradient id="g" gradientUnits="userSpaceOnUse" x1="11.282" x2="9.073" xlink:href="#b" y1="28.057" y2="25.848"/><linearGradient id="h" gradientUnits="userSpaceOnUse" x1="28.297" x2="28.297" xlink:href="#a" y1="22.22" y2="2.653"/><path d="M20.906 4.967c-2.661 2.69-3.585 6.466-2.777 9.911h-.002c.13.613.291 1.446-.065 1.806-4.43 4.475-12.74 12.827-16.679 16.806l-.034 1.404s.634 1.003-.099 3.195c0 .153 2.06-.232 4.027-.252 0 0 6.013-5.691 14.559-14.547.09-.094 2.046 2.02 2.13 1.937 1.161-1.16.907-1.361 1.823-2.288.498-.504 1.18-.35 2.486-.143a10.374 10.374 0 009.413-2.894c4.083-4.125 4.083-10.81 0-14.934a10.38 10.38 0 00-14.782-.001zm12.23 5.944c-.92.93-2.411.93-3.33 0a2.397 2.397 0 010-3.365c.92-.93 2.41-.93 3.33 0a2.4 2.4 0 010 3.365z" fill="url(#c)"/><path d="M21.593 5.662a9.6 9.6 0 00-2.774 6.875l9.379 9.474a9.4 9.4 0 006.804-2.803c3.705-3.74 3.705-9.807 0-13.546a9.413 9.413 0 00-13.409 0zm11.544 5.25c-.92.929-2.412.929-3.331 0a2.397 2.397 0 010-3.366c.92-.93 2.41-.93 3.33 0a2.4 2.4 0 010 3.365z" fill="url(#d)"/><path d="M29.432 7.169a2.934 2.934 0 000 4.12 2.86 2.86 0 004.077 0 2.935 2.935 0 000-4.12 2.863 2.863 0 00-4.077 0zm3.646 3.684a2.257 2.257 0 01-3.216 0 2.311 2.311 0 01.002-3.25 2.256 2.256 0 013.214 0 2.313 2.313 0 010 3.25z" fill="url(#e)"/><path d="M22.048 20.9c1.368-1.381 2.757.021 1.39 1.405l-3.553 3.589c-.123.124-1.532-.05-1.61.03l-.938.947c-.09.09-.181 1.78-.345 1.945-.19.19-1.198.178-1.29.27-.15.154-.802.81-.887.897-.054.055.008.683-.174.867-.194.197-1.72.243-1.822.347-.165.166-.56.564-.723.73-.085.086-.188 1.73-.29 1.834-.169.172-1.837.612-1.922.697-.179.177-.48.484-.656.664-.093.09-.326 1.277-.454 1.407-.164.167-1.27.218-1.562.437-.087.064-.66.974-.737.956-.57-.125-1.198-.085-1.198-.085S21.584 21.37 22.048 20.9z" fill="url(#f)"/><path d="M20.156 18.99L1.25 38.088l.1-3.195s16.628-16.8 17.275-17.45c1.403-1.419 2.934.128 1.53 1.545z" fill="url(#g)"/><path d="M35.148 19.354a9.566 9.566 0 01-6.953 2.865h-.085l-9.498-9.595v-.085a9.762 9.762 0 012.836-7.025 9.629 9.629 0 0113.698 0c3.78 3.817 3.78 10.025.001 13.84zm-6.866 2.45a9.157 9.157 0 006.574-2.745c3.615-3.653 3.615-9.597 0-13.25a9.216 9.216 0 00-13.115 0 9.346 9.346 0 00-2.717 6.64z" fill="url(#h)"/></svg>