<svg fill="none" height="40" width="40" xmlns="http://www.w3.org/2000/svg" xmlns:xlink="http://www.w3.org/1999/xlink"><linearGradient id="a"><stop offset=".4" stop-color="#e60026"/><stop offset=".618" stop-color="#e30026"/><stop offset=".758" stop-color="#db0024"/><stop offset=".877" stop-color="#c02"/><stop offset=".984" stop-color="#b7001f"/><stop offset="1" stop-color="#b3001e"/></linearGradient><radialGradient id="d" cx="0" cy="0" gradientTransform="matrix(11.00224 -4.06394 4.16265 11.26949 24.547 22.418)" gradientUnits="userSpaceOnUse" r="1" xlink:href="#a"/><linearGradient id="b"><stop offset="0" stop-color="#b30100"/><stop offset="1" stop-color="#c21413" stop-opacity="0"/></linearGradient><radialGradient id="e" cx="0" cy="0" gradientTransform="matrix(4.6501 -1.71763 .72228 1.95542 25.797 19.693)" gradientUnits="userSpaceOnUse" r="1" xlink:href="#b"/><linearGradient id="c"><stop offset="0" stop-color="#ff7a70" stop-opacity=".65"/><stop offset="1" stop-color="#ff7a70" stop-opacity="0"/></linearGradient><radialGradient id="f" cx="0" cy="0" gradientTransform="matrix(2.56075 -1.36837 1.39923 2.6185 33.313 20.42)" gradientUnits="userSpaceOnUse" r="1" xlink:href="#c"/><radialGradient id="g" cx="0" cy="0" gradientTransform="matrix(4.05452 -1.8012 1.27494 2.8699 26.068 23.79)" gradientUnits="userSpaceOnUse" r="1" xlink:href="#c"/><radialGradient id="h" cx="0" cy="0" gradientTransform="matrix(12.8423 0 0 13.2006 10.653 24.004)" gradientUnits="userSpaceOnUse" r="1" xlink:href="#a"/><radialGradient id="i" cx="0" cy="0" gradientTransform="matrix(5.42803 0 0 2.29067 12.95 21.672)" gradientUnits="userSpaceOnUse" r="1" xlink:href="#b"/><radialGradient id="j" cx="0" cy="0" gradientTransform="matrix(3.3091 -.32373 .33104 3.38378 5.976 25.103)" gradientUnits="userSpaceOnUse" r="1" xlink:href="#c"/><radialGradient id="k" cx="0" cy="0" gradientTransform="matrix(5.08081 -1.78577 1.14578 3.25993 17.225 25.571)" gradientUnits="userSpaceOnUse" r="1"><stop offset="0" stop-color="#ff5e52" stop-opacity=".65"/><stop offset="1" stop-color="#ff5e52" stop-opacity="0"/></radialGradient><radialGradient id="l" cx="25.519" cy="2.694" gradientUnits="userSpaceOnUse" r="4.019"><stop offset=".109" stop-color="#56ab15"/><stop offset=".112" stop-color="#56aa15"/><stop offset=".322" stop-color="#645d25"/><stop offset=".418" stop-color="#693f2b"/></radialGradient><path d="M25.122 17.474c-.804.297-10.286.571-7.985 9.532 3.992 15.538 27.49 6.04 20.23-7.472-4.42-8.23-11.439-2.358-12.245-2.06z" fill="url(#d)"/><path d="M25.942 20.065c2.5-.923 1.93-2.056 7.606-4.297-3.62-.35-13.649 3.363-16.174 5.973 5.786-1.996 6.065-.752 8.568-1.676z" fill="url(#e)"/><path d="M21.035 5.029c-.305.303-.646.522-.992.777-.282 7.753 4.29 12.488 5.899 14.258 0 0 .733-.177 1.327-.664-1.54-1.698-6.669-6.674-6.234-14.371z" fill="#529320"/><path d="M35.874 19.052c-.87-1.394-2.723-1.911-4.137-1.156-1.415.756-1.855 2.498-.985 3.892.871 1.394 2.723 1.911 4.137 1.156 1.415-.756 1.856-2.498.985-3.892z" fill="url(#f)"/><path d="M30.121 21.989c-1.14-1.39-3.88-1.712-6.12-.717s-3.13 2.929-1.988 4.32c1.14 1.391 3.882 1.711 6.12.717 2.24-.995 3.13-2.93 1.988-4.32z" fill="url(#g)"/><path d="M13.075 19.128c-.94 0-10.815-3.327-11.756 6.786-1.63 17.534 26.1 16.691 23.614 0-1.513-10.167-10.919-6.786-11.857-6.786z" fill="url(#h)"/><path d="M12.96 22.11c2.92 0 2.748-1.384 9.43-1.534-3.602-1.737-15.312-1.729-18.88 0 6.703.146 6.529 1.535 9.45 1.535z" fill="url(#i)"/><path d="M27.34 1.758C16.08 4.154 12.316 14.531 12.316 22.085c0 0 .689.091 1.291 0 0-8.974 4.693-17.412 13.733-19.556z" fill="#56ab15"/><path d="M9.285 24.779c-.309-1.857-2.041-3.216-3.868-3.037-1.828.178-3.06 1.828-2.75 3.684.31 1.857 2.042 3.217 3.87 3.038 1.827-.18 3.059-1.83 2.748-3.685z" fill="url(#j)"/><path d="M22.306 23.786c-1.235-1.59-4.514-2.076-7.32-1.09-2.805.986-4.079 3.073-2.842 4.66 1.237 1.589 4.515 2.076 7.32 1.09 2.807-.985 4.08-3.072 2.842-4.66z" fill="url(#k)"/><path d="M29.335 1.25c-1.896 0-2.853.508-4.035 1.054.274.225.316.565.417.685.599.234 1.956-.381 3.45 0 .779.2.894-1.739.168-1.739z" fill="url(#l)"/><path d="M28.101 2.696c-.432.708-1.222.258-1.098-.071.308-.128.697.25 1.098.071zM28.144 2.111c-.038-.815.834-.84.912-.5-.114.245-.69.146-.912.5z" fill="#ab735b"/><path d="M26.573 2.398c.077-.889 1.156-1.045 1.201-.684-.433-.083-.765.62-1.2.684zM29.232 2.96c-.727.303-.903-.45-.612-.632.077.23.612.352.612.632z" fill="#947365"/><path d="M25.672 2.83c-2.143 14.395 12.96 17.154 12.96 17.154s-7.426-13.3-12.96-17.154z" fill="#449c00"/><path d="M25.673 2.83c4.912 4.507 12.96 17.154 12.96 17.154S40.882 4.426 25.673 2.83z" fill="#56ab15"/><path d="M27.072 4.235c1.139-.16 2.318-.03 3.424.254 1.103.304 2.144.8 2.987 1.48-.934-.578-1.95-1.048-3.04-1.33a10.954 10.954 0 00-1.663-.325 10.812 10.812 0 00-1.708-.079zM29 6.458c1.286-.216 2.639-.08 3.88.294.617.197 1.21.458 1.75.784a7.263 7.263 0 011.444 1.152c-.94-.786-2.032-1.424-3.255-1.79a9.812 9.812 0 00-1.877-.395 10.03 10.03 0 00-1.943-.045zM30.974 8.96c1.296-.052 2.604.2 3.793.663a7.702 7.702 0 011.649.912c.499.365.925.802 1.273 1.276a7.979 7.979 0 00-2.997-2.047 10.56 10.56 0 00-1.811-.548 11.836 11.836 0 00-1.907-.255zM33.189 11.964c1.038.13 2.035.468 2.947.923.448.239.88.507 1.261.823.387.312.717.673.987 1.062a8.095 8.095 0 00-2.34-1.75 11.18 11.18 0 00-1.384-.607c-.48-.174-.968-.332-1.471-.451zM35.21 14.841c.759.214 1.448.592 2.057 1.045.296.235.575.489.806.775.236.282.421.595.553.92a6.116 6.116 0 00-1.477-1.579 8.29 8.29 0 00-.927-.627 10.752 10.752 0 00-1.013-.534z" fill="#5fbd17"/><g fill="#56ab15"><path d="M27.072 4.235c-.679.847-1.04 1.87-1.188 2.91a6.273 6.273 0 00.42 3.16c-.267-1.047-.37-2.104-.225-3.13.057-.516.18-1.019.345-1.511.168-.492.37-.976.648-1.429zM29 6.458c-.864 1.019-1.37 2.255-1.56 3.502a6.546 6.546 0 00.018 1.876c.1.615.295 1.212.572 1.773-.413-1.17-.587-2.408-.4-3.636a7.718 7.718 0 01.477-1.808A8.361 8.361 0 0129 6.458zM30.974 8.96a8.263 8.263 0 00-1.234 3.635 6.355 6.355 0 00.124 1.84c.13.594.374 1.154.696 1.658a6.637 6.637 0 01-.634-3.505c.042-.612.17-1.226.345-1.833.181-.607.403-1.21.703-1.794zM33.189 11.964a7.69 7.69 0 00-.772 2.917c-.019.491.001.982.098 1.453.09.473.262.924.495 1.336a6.673 6.673 0 01-.406-2.802c.017-.482.094-.968.19-1.453.102-.485.226-.97.395-1.451zM35.21 14.841c-.205.81-.196 1.621-.064 2.384.082.376.19.744.36 1.08.163.338.388.639.657.896a5.26 5.26 0 01-.827-2.043 7.05 7.05 0 01-.137-1.136 9.445 9.445 0 01.01-1.18z"/></g></svg>